<svg xmlns="http://www.w3.org/2000/svg" xmlns:xlink="http://www.w3.org/1999/xlink" width="362" height="351" viewBox="0 0 362 351">
  <defs>
    <filter id="Rectángulo_403" x="0" y="0" width="362" height="351" filterUnits="userSpaceOnUse">
      <feOffset dy="3" input="SourceAlpha"/>
      <feGaussianBlur stdDeviation="3" result="blur"/>
      <feFlood flood-opacity="0.161"/>
      <feComposite operator="in" in2="blur"/>
      <feComposite in="SourceGraphic"/>
    </filter>
    <clipPath id="clip-path">
      <rect id="Rectángulo_397" data-name="Rectángulo 397" width="225.856" height="229.809" fill="#c1272d"/>
    </clipPath>
  </defs>
  <g id="Grupo_1552" data-name="Grupo 1552" transform="translate(-144 -40)">
    <g id="Grupo_1551" data-name="Grupo 1551">
      <g id="Grupo_1550" data-name="Grupo 1550">
        <g id="Grupo_1511" data-name="Grupo 1511">
          <g transform="matrix(1, 0, 0, 1, 144, 40)" filter="url(#Rectángulo_403)">
            <rect id="Rectángulo_403-2" data-name="Rectángulo 403" width="344" height="333" rx="27" transform="translate(9 6)" fill="#fff"/>
          </g>
          <g id="Grupo_291" data-name="Grupo 291" transform="translate(211.576 107.505)">
            <g id="Grupo_290" data-name="Grupo 290" clip-path="url(#clip-path)">
              <path id="Trazado_772" data-name="Trazado 772" d="M1.143,227.582a11.229,11.229,0,0,0,5.235-1.647c4.163-2.372,6.868-6.581,8.6-10.933a12.668,12.668,0,0,1,1.446-3.079,3.154,3.154,0,0,1,.565-.658c.144-.117.24-.159.274-.152-.041-.009.181.144.327.315a5.781,5.781,0,0,1,.871,1.706,73.835,73.835,0,0,0,3.906,8.536,25.146,25.146,0,0,0,2.944,4.653,4.772,4.772,0,0,0,1.537,1.185c-.421-.215.147.094.259.147a12.31,12.31,0,0,0,1.237.509c2.22.773,4.871.636,6.352-1.367a23.834,23.834,0,0,0,3.006-6.511,109.508,109.508,0,0,0,4.37-20.219c.815-5.819,1.4-11.667,1.841-17.526q.2-2.62.357-5.244c.085-1.4.025-2.885.222-4.263a14.277,14.277,0,0,1,.826-2.817,7.126,7.126,0,0,1,.762-1.572,1.24,1.24,0,0,1,.11-.152c.095-.114.136-.262.113-.132.009-.054-.2-.035-.206-.019-.029.054-.151-.188.024.065.071.1.158.215.232.334a6.739,6.739,0,0,1,.6,1.344,23.112,23.112,0,0,1,.836,3.035c.248,1.224.439,2.463.658,3.692l3.442,19.31q1.861,10.436,3.72,20.872l1.034,5.8a8.355,8.355,0,0,0,1.324,3.023c1.472,2.341,4.182,5.192,7.166,3.459,2.077-1.206,3.153-3.772,3.958-5.9a5.227,5.227,0,0,0,.308-1.3c.4-3.388.77-6.781,1.137-10.172q1.148-10.633,2.174-21.281,1.386-14.37,2.551-28.759,1.3-16.209,2.258-32.445c.627-10.934,1.109-21.878,1.33-32.828.1-5.144.148-10.291.1-15.437-.024-2.939-.285-5.919-.054-8.851.175-2.224.393-4.558.681-6.7a33.693,33.693,0,0,1,.6-3.423c.047-.2.1-.39.155-.583.035-.12.192-.574.142-.442-.069.182.063-.183.123-.216s-.24.179-.054.084c-.281.144-.438.3-.785.252a1.939,1.939,0,0,1-.509-.232c.17.068-.148-.091-.059-.079.142.02.095.157.14.291a14.207,14.207,0,0,1,.438,1.723c.459,2.295.695,4.636.926,6.963.146,1.467.293,2.931.363,4.4q.208,4.372.424,8.742.393,7.984.8,15.968.536,10.492,1.1,20.985.633,11.784,1.306,23.567.681,11.889,1.426,23.776.682,10.808,1.459,21.609c.418,5.695.858,11.388,1.406,17.072.334,3.462.625,6.97,1.29,10.387a10.9,10.9,0,0,0,.289,1.229c.055.174.257.74.185.494-.095-.326.062.3.085.383a26.356,26.356,0,0,0,2.739,6.769,5.428,5.428,0,0,0,2.664,2.5,3.109,3.109,0,0,0,3.329-1.181,16.51,16.51,0,0,0,2.754-6.229,13.171,13.171,0,0,0,.559-2.414c.125-1.477.121-2.977.181-4.458l.409-10.121q.3-7.352.595-14.7.373-9.216.746-18.431.426-10.548.853-21.1l.92-22.762q.473-11.713.947-23.427l.934-23.092.875-21.656q.394-9.717.786-19.433l.651-16.1.475-11.767.26-6.434c.012-.3,0-.607.037-.9.218-1.874,3.134-1.578,3.3.186.154,1.648.056,3.36.084,5.013q.1,5.651.207,11.3.157,8.2.331,16.408.214,10.168.455,20.337.272,11.543.58,23.086.328,12.271.7,24.54.386,12.529.833,25.057.439,12.142.962,24.281.487,11.167,1.091,22.328c.352,6.4.744,12.8,1.221,19.2.371,4.969.783,9.938,1.352,14.889a66.4,66.4,0,0,0,1.5,9.627,16.374,16.374,0,0,0,2.855,5.771,4.281,4.281,0,0,0,3.349,1.9c1.817-.064,3.062-1.759,3.842-3.211a14,14,0,0,0,1.84-5.464q.135-1.787.27-3.574.533-7.022,1.066-14.045l1.541-20.312q.876-11.549,1.752-23.1l1.691-22.3,1.384-18.24q.4-5.3.8-10.591a68.565,68.565,0,0,1,.788-7c.1-.578.22-1.155.374-1.722.065-.237.135-.472.216-.7.091-.262-.032-.025.154-.338.14-.237.029-.017-.084.032a1.009,1.009,0,0,1-.651.084c-.1-.021-.176-.108-.266-.141-.294-.108.055-.006,0,.008-.012,0-.088-.173.008.018.054.11.121.214.174.325a7.22,7.22,0,0,1,.274.756,35.636,35.636,0,0,1,1.518,7.785c.229,2.825.423,5.653.635,8.479q.629,8.408,1.258,16.816l1.628,21.74,1.741,23.269q.8,10.7,1.6,21.4.6,8.067,1.207,16.133c.186,2.485.328,4.98.558,7.461.134,1.434,1.516,2.9,2.433,3.9a7.937,7.937,0,0,0,4.066,2.6,5.49,5.49,0,0,0,5.129-1.941,10.853,10.853,0,0,0,2.6-4.367c.2-.822.335-1.665.5-2.494q1.011-5.116,1.946-10.246c1.541-8.458,3.16-17.019,3.742-25.609a20.171,20.171,0,0,0,.1-2.225c-.006-.127-.012-.464-.038-.141,0-.022.01-.045.012-.067.011-.109.041-.218.062-.326.19-1.024.426-2.041.7-3.046a13.969,13.969,0,0,1,1.258-3.39c.056-.1.119-.187.181-.278.043-.062-.054.117.065-.065.092-.142.08,0-.054-.031a1.518,1.518,0,0,0-.268-.024c-.036.009-.072-.044-.062-.029a4.829,4.829,0,0,1,.4.594,22.2,22.2,0,0,1,1.848,7.64q.433,3.687.9,7.37c.971,7.626,2.007,15.252,3.343,22.823.553,3.136,1.128,6.288,1.978,9.359.393,1.418.8,3.18,1.926,4.212a9.9,9.9,0,0,0,13.019.617c3.244-2.723,4.523-6.774,6-10.573.317-.812,1-2.427,1.873-2.8a.387.387,0,0,1,.344-.021,2.072,2.072,0,0,1,.807.671,7.837,7.837,0,0,1,1.268,2.178,36.1,36.1,0,0,0,3.168,6.963c2.2,3.426,5.352,6.359,9.455,7.159,1.487.29,2.124-1.989.629-2.28-4.259-.831-7.164-4.215-9.1-7.9-1.3-2.477-1.8-5.4-3.592-7.606-1.085-1.334-2.746-2.088-4.331-1.11a7.254,7.254,0,0,0-2.511,3.416c-1.561,3.608-2.5,7.615-5.686,10.232a6.744,6.744,0,0,1-7.048.934,12.857,12.857,0,0,1-2.213-1.236c-.069-.047-.421-.313-.255-.184s-.086-.068-.136-.113c-.1-.084-.188-.166-.275-.259.163.173.035.07-.058-.12-.081-.165-.17-.325-.248-.492a2.054,2.054,0,0,1-.132-.336c-.088-.244-.175-.489-.255-.736-.389-1.2-.69-2.421-.971-3.645-.792-3.451-1.4-6.947-1.967-10.442-1.187-7.275-2.166-14.585-3.067-21.9-.216-1.753-.418-3.507-.628-5.26a33.625,33.625,0,0,0-1.1-5.251c-.385-1.331-.9-3.24-2.235-3.959-3.948-2.132-5.293,8.233-5.4,10.6-.4,8.406-2.05,16.814-3.541,25.079q-.971,5.373-2.027,10.731-.273,1.385-.552,2.768a7.994,7.994,0,0,1-2.034,3.544c-1.13,1.236-2.5,1.754-4.01.885a9.61,9.61,0,0,1-2.988-3.007,8.9,8.9,0,0,0-.669-1.066c-.279-.3.065.524.089.43a2.365,2.365,0,0,0-.047-.625l-.685-9.158L156.032,194.2l-1.642-21.949q-.871-11.624-1.74-23.25l-1.583-21.152q-.584-7.8-1.168-15.6c-.17-2.27-.282-4.554-.51-6.819a52.252,52.252,0,0,0-.981-5.717c-.3-1.393-.581-3.278-1.586-4.379a1.643,1.643,0,0,0-2.686.26,8.11,8.11,0,0,0-.958,2.852,63.89,63.89,0,0,0-.968,7.938q-.38,5-.759,10L140.1,134.244q-.843,11.125-1.687,22.25-.879,11.576-1.757,23.15-.779,10.283-1.56,20.567-.549,7.224-1.1,14.45l-.3,3.924a10.442,10.442,0,0,1-1.2,3.878,6.8,6.8,0,0,1-1.611,2.425c-.436.352-.633.372-1.034.189a4.427,4.427,0,0,1-1.069-1,10.857,10.857,0,0,1-1.024-1.652,15.646,15.646,0,0,1-1.548-4.213,96.044,96.044,0,0,1-1.433-10.188c-.55-5.228-.96-10.471-1.329-15.714-.464-6.6-.849-13.211-1.2-19.82q-.6-11.371-1.068-22.748-.516-12.248-.939-24.5-.44-12.535-.811-25.072-.367-12.232-.684-24.467-.3-11.343-.558-22.686-.227-9.821-.431-19.641-.162-7.806-.309-15.613-.1-5.152-.186-10.3c-.022-1.267.022-2.554-.064-3.819-.281-4.137-6.7-5.123-7.881-1.01a7.279,7.279,0,0,0-.175,1.707q-.124,3.062-.248,6.125-.233,5.755-.465,11.512l-.643,15.9q-.389,9.641-.78,19.283-.435,10.779-.871,21.558l-.932,23.047q-.474,11.717-.948,23.434-.461,11.412-.923,22.822-.428,10.6-.857,21.21l-.752,18.6q-.3,7.492-.606,14.982l-.419,10.368c-.063,1.563.006,3.2-.192,4.752a4.513,4.513,0,0,1-.17.706c-.585,2.114-1.083,4.727-2.554,6.453a1.824,1.824,0,0,1-.5.449c-.176.1-.15.066-.222.063s-.009.025-.191-.065c-.263-.13-.18-.08-.423-.32a10.2,10.2,0,0,1-1.895-3.141,31.4,31.4,0,0,1-1.2-3.334c-.108-.353-.2-.711-.309-1.064-.023-.074-.038-.151-.061-.226-.1-.334-.1-.285-.047-.125a16.624,16.624,0,0,1-.57-2.572q-.084-.519-.158-1.039c-.024-.169-.047-.338-.071-.508-.032-.232.026.2-.006-.039l-.047-.367q-.173-1.333-.319-2.67c-.249-2.239-.464-4.483-.666-6.726-.543-6.019-.994-12.045-1.422-18.074q-.787-11.086-1.46-22.18-.739-11.956-1.411-23.914-.658-11.636-1.274-23.274-.537-10.129-1.05-20.26-.377-7.436-.741-14.873c-.116-2.371-.214-4.743-.343-7.113-.175-3.181-.552-6.385-1.028-9.535-.185-1.217-.722-6.543-3.224-5.038-1.471.885-1.569,3.928-1.78,5.4-.346,2.418-.59,4.851-.789,7.285-.219,2.68-.027,5.369,0,8.056.058,5.064.026,10.128-.064,15.191-.195,10.923-.658,21.841-1.268,32.747s-1.373,21.8-2.24,32.689q-1.157,14.51-2.552,29-1.04,10.845-2.2,21.677-.577,5.365-1.2,10.725a3.373,3.373,0,0,1-.064.543,13.261,13.261,0,0,1-1.768,3.487,3.4,3.4,0,0,1-1.65,1.454c-.939.27-1.955-.676-2.651-1.5a14.375,14.375,0,0,1-1.791-2.851c-.167-.331-.1-.505-.07-.129-.009-.108-.043-.215-.058-.323-.08-.6-.214-1.2-.32-1.793q-.653-3.669-1.307-7.337l-3.9-21.888-3.075-17.254a25.558,25.558,0,0,0-1.617-6.016c-.561-1.258-1.642-2.737-3.221-2.2-1.288.443-1.918,1.959-2.379,3.12-1.486,3.743-1.232,7.776-1.512,11.74-.42,5.934-.971,11.863-1.773,17.758a112.867,112.867,0,0,1-4.369,20.639,22,22,0,0,1-2.861,6.231c.158-.225.19-.164.017-.032-1.519,1.155-3.208.616-4.806-.168-.086-.043-.44-.242-.193-.089-.049-.031-.238-.17-.113-.061a5.474,5.474,0,0,1-.681-.717,17.133,17.133,0,0,1-1.34-2.024c-1.033-1.741-1.94-3.558-2.809-5.385-.58-1.219-1.2-2.448-1.686-3.71-.6-1.562-1.1-3.585-2.746-4.406-2.8-1.4-4.573,2.659-5.325,4.649-1.517,4.012-3.906,7.994-7.715,10.194a10.877,10.877,0,0,1-3.043,1.215c-.169.039-.339.07-.51.1-.414.079.091,0-.208.029-.118.013-.238.023-.358.024a1.183,1.183,0,0,0,0,2.366" transform="translate(0 0)" fill="#c1272d"/>
            </g>
          </g>
          <text id="λ" transform="translate(461 316)" font-size="20" font-family="SegoeUI, Segoe UI"><tspan x="0" y="22">λ</tspan></text>
          <path id="Trazado_2062" data-name="Trazado 2062" d="M4470.4,94V322.5h240.2" transform="translate(-4259 13.505)" fill="none" stroke="#000" stroke-width="2"/>
          <path id="Polígono_1" data-name="Polígono 1" d="M3.5,0,7,8H0Z" transform="translate(458 332.5) rotate(90)"/>
        </g>
      </g>
    </g>
  </g>
</svg>
