<svg xmlns="http://www.w3.org/2000/svg" xmlns:xlink="http://www.w3.org/1999/xlink" width="1920" height="1136" viewBox="0 0 1920 1136">
  <defs>
    <linearGradient id="linear-gradient" x1="0.145" y1="0.485" x2="0.145" y2="-0.004" gradientUnits="objectBoundingBox">
      <stop offset="0" stop-color="#0a3561"/>
      <stop offset="0.987" stop-color="#11141e"/>
      <stop offset="1" stop-color="#161616"/>
    </linearGradient>
  </defs>
  <g id="Grupo_163" data-name="Grupo 163" transform="translate(0 0)">
    <rect id="Rectángulo_21" data-name="Rectángulo 21" width="1920" height="1136" opacity="0.92" fill="url(#linear-gradient)"/>
    <g id="Grupo_19" data-name="Grupo 19" transform="translate(588.226 409.584)">
      <path id="Trazado_38" data-name="Trazado 38" d="M2612.566,1598.84a1.283,1.283,0,1,0,1.284,1.283A1.284,1.284,0,0,0,2612.566,1598.84Z" transform="translate(-2579.195 -1581.936)" fill="#0bf"/>
      <path id="Trazado_39" data-name="Trazado 39" d="M2645.3,1583.626a3.851,3.851,0,0,0-3.85,3.851v2.811h-8.984v-.18a3.851,3.851,0,0,0-3.851-3.851h-1.989a5.137,5.137,0,0,0-4.454-2.567h-14.093a3.851,3.851,0,0,0-3.632,2.567h-1.5a3.851,3.851,0,0,0-3.851,3.851v.18H2590.1v-2.811a3.85,3.85,0,1,0-7.7,0v7.88a3.85,3.85,0,1,0,7.7,0v-2.567h8.984v3.773a1.284,1.284,0,0,0,1.283,1.284h3.851v.4l-6.829,2.31a1.284,1.284,0,0,0-.782.744l-4.813,12.193h-2.978a1.283,1.283,0,1,0,0,2.567h7.7a1.283,1.283,0,0,0,0-2.567h-1.963l4.222-10.7,5.442-1.771v2.118a1.283,1.283,0,0,0,1.283,1.283h4.39a6.417,6.417,0,0,0,11.757,0h4.39a1.283,1.283,0,0,0,1.283-1.283v-2.118l5.442,1.836,4.223,10.7h-1.964a1.283,1.283,0,0,0,0,2.567h7.7a1.283,1.283,0,1,0,0-2.567h-2.978l-4.813-12.193a1.281,1.281,0,0,0-.782-.744l-6.829-2.311v-.4h3.851a1.283,1.283,0,0,0,1.283-1.283v-3.773h8.984v2.567a3.85,3.85,0,1,0,7.7,0v-7.944A3.851,3.851,0,0,0,2645.3,1583.626Zm-57.758,11.731a1.284,1.284,0,1,1-2.568,0v-7.88a1.284,1.284,0,0,1,2.568,0Zm37.222,1.284v1.283h-3.851a6.313,6.313,0,0,0-10.268,0h-3.851V1592.7h17.97Zm-17.97-9.139a1.284,1.284,0,0,1,1.283-1.283h14.119a2.567,2.567,0,0,1,2.568,2.567v1.283h-17.97Zm-5.134,7.842v-5.237a1.283,1.283,0,0,1,1.283-1.283h1.283v6.546Zm5.134,6.508v-1.284h2.7a7.314,7.314,0,0,0-.128,1.284h-2.568Zm8.985,3.85a3.927,3.927,0,1,1,3.849-4v.075a3.849,3.849,0,0,1-3.72,3.977c-.043,0-.086,0-.13,0Zm8.984-3.85h-2.568a7.29,7.29,0,0,0-.128-1.284h2.7Zm5.134-6.508h-2.567V1588.8h1.283a1.283,1.283,0,0,1,1.283,1.283Zm16.687,0a1.284,1.284,0,0,1-2.568,0v-7.868a1.284,1.284,0,0,1,2.568,0Z" transform="translate(-2582.403 -1583.626)" fill="#0bf"/>
    </g>
    <line id="Línea_7" data-name="Línea 7" y1="31.817" x2="20.835" transform="translate(588.087 447.944)" fill="none" stroke="#0bf" stroke-width="2"/>
    <line id="Línea_8" data-name="Línea 8" x1="8.422" y2="14.876" transform="translate(608.922 448.977)" fill="none" stroke="#0bf" stroke-width="2"/>
    <line id="Línea_9" data-name="Línea 9" x2="8.665" y2="14.871" transform="translate(627.16 448.977)" fill="none" stroke="#0bf" stroke-width="2"/>
    <line id="Línea_10" data-name="Línea 10" x2="20.262" y2="31.817" transform="translate(635.851 447.944)" fill="none" stroke="#0bf" stroke-width="2"/>
  </g>
</svg>
