<svg xmlns="http://www.w3.org/2000/svg" width="98.197" height="98.197" viewBox="0 0 98.197 98.197">
  <g id="Grupo_142" data-name="Grupo 142" transform="translate(-496.402 -1109.402)">
    <circle id="Elipse_30" data-name="Elipse 30" cx="40.5" cy="40.5" r="40.5" transform="translate(505 1118)" fill="#7b7c7c"/>
    <circle id="Elipse_31" data-name="Elipse 31" cx="40.5" cy="40.5" r="40.5" transform="translate(505 1118)" fill="#fff"/>
    <g id="Grupo_117" data-name="Grupo 117" transform="translate(-1051)">
      <g id="Grupo_114" data-name="Grupo 114">
        <g id="Grupo_113" data-name="Grupo 113">
          <path id="Trazado_641" data-name="Trazado 641" d="M1617.486,1156.916a1.34,1.34,0,1,0-2.674.193c.033.456.049.924.049,1.391a19.385,19.385,0,1,1-19.385-19.385,19.2,19.2,0,0,1,11.626,3.874,1.341,1.341,0,0,0,1.611-2.144,21.868,21.868,0,0,0-13.237-4.412,22.067,22.067,0,1,0,22.067,22.067C1617.543,1157.969,1617.524,1157.437,1617.486,1156.916Z" fill="#39b54a"/>
        </g>
      </g>
      <g id="Grupo_116" data-name="Grupo 116">
        <g id="Grupo_115" data-name="Grupo 115">
          <path id="Trazado_642" data-name="Trazado 642" d="M1622.061,1139.463a5.237,5.237,0,0,0-7.4,0l-19.319,19.319-6.848-6.848a5.23,5.23,0,0,0-7.4,7.4l11.794,11.795a3.471,3.471,0,0,0,4.9,0l24.265-24.266A5.237,5.237,0,0,0,1622.061,1139.463Zm-1.9,5.5L1595.9,1169.23a.785.785,0,0,1-1.109,0l-11.8-11.795a2.549,2.549,0,0,1,3.6-3.605l7.045,7.045a2.4,2.4,0,0,0,3.4,0l19.515-19.515a2.549,2.549,0,0,1,3.6,3.6Z" fill="#39b54a"/>
        </g>
      </g>
    </g>
  </g>
</svg>
