<svg xmlns="http://www.w3.org/2000/svg" width="55.153" height="57.659" viewBox="0 0 55.153 57.659">
  <g id="Grupo_151" data-name="Grupo 151" transform="translate(-543.756 -1217.011)">
    <path id="Trazado_198" data-name="Trazado 198" d="M598.909,1244.582a27.577,27.577,0,1,0-35.964,26.276,1.1,1.1,0,0,0,.336.051,1.218,1.218,0,0,0,.618-.168,1.148,1.148,0,0,0,.51-.643l6.964-22.072a3.448,3.448,0,1,0-1.513-6.55l-9.2-9.2a1.149,1.149,0,0,0-1.625,1.625l9.2,9.206a3.38,3.38,0,0,0,.967,4.16l-6.636,21.033a25.3,25.3,0,1,1,19.045-.631l-.717-3.377a1.149,1.149,0,0,0-1.889-.619l-6.913,6.172a1.149,1.149,0,0,0,.416,1.954l8.826,2.817a1.15,1.15,0,0,0,1.476-1.333l-.705-3.314A27.485,27.485,0,0,0,598.909,1244.582Zm-27.576-1.149a1.149,1.149,0,1,1-1.149,1.149A1.15,1.15,0,0,1,571.333,1243.433Zm3.784,26.783,3.936-3.511,1.086,5.118Z" fill="#44a0ba"/>
    <path id="Trazado_199" data-name="Trazado 199" d="M570.184,1222.75v2.3a1.149,1.149,0,1,0,2.3,0v-2.3a1.149,1.149,0,1,0-2.3,0Z" fill="#44a0ba"/>
    <path id="Trazado_200" data-name="Trazado 200" d="M549.5,1243.433a1.149,1.149,0,1,0,0,2.3h2.3a1.149,1.149,0,1,0,0-2.3Z" fill="#44a0ba"/>
    <path id="Trazado_201" data-name="Trazado 201" d="M593.164,1245.731a1.149,1.149,0,1,0,0-2.3h-2.3a1.149,1.149,0,1,0,0,2.3Z" fill="#44a0ba"/>
  </g>
</svg>
