<svg id="Capa_1" data-name="Capa 1" xmlns="http://www.w3.org/2000/svg" viewBox="0 0 130 70"><defs><style>.cls-1{fill:#fff;}</style></defs><path class="cls-1" d="M62.84,19.17A3,3,0,1,0,61,20.26a22.6,22.6,0,0,1,1.36,3.47,41.14,41.14,0,0,1,1.5,11.78,1,1,0,1,0,2.09,0c0-7.91-1.48-13-3.15-16.34"/><path class="cls-1" d="M69.79,13.94a3,3,0,1,0-2,.5,109.64,109.64,0,0,1,1.73,21.07,1,1,0,1,0,2.09,0,111.06,111.06,0,0,0-1.79-21.57"/><path class="cls-1" d="M92.24,15.19a3,3,0,0,0-4.34,4.08c-1.71,3.36-3.25,8.53-3.25,16.25a1,1,0,1,0,2.1,0,39.7,39.7,0,0,1,1.54-11.58,23.15,23.15,0,0,1,1.41-3.59,3,3,0,0,0,2.54-5.16"/><path class="cls-1" d="M83.72,8.6a3,3,0,0,0-2.53,5.33,111.71,111.71,0,0,0-1.78,21.58,1,1,0,1,0,2.09,0,109.19,109.19,0,0,1,1.72-21.07,3,3,0,0,0,.5-5.84"/><path class="cls-1" d="M78.48,5a3,3,0,1,0-4.12,2.77L74.24,35.7a1.12,1.12,0,0,0,1.12,1.13h0a1.13,1.13,0,0,0,1.13-1.12l.12-27.93A3,3,0,0,0,78.48,5"/><path class="cls-1" d="M26.49,57.76H19.31V40.15h6.38c2.29,0,3.44.3,4.4,1.18a4.27,4.27,0,0,1,.37,5.92,3.54,3.54,0,0,1-2.88,1.28,4.18,4.18,0,0,1,4.35,4.54c0,3-1.92,4.69-5.44,4.69M25,42.82H22.83v4.54h2c1.9,0,2.91-.8,2.91-2.3s-1-2.24-2.72-2.24m0,7.39H22.83v4.86H25a4.33,4.33,0,0,0,2-.32,2.26,2.26,0,0,0,1.2-2.06c0-1.6-1.15-2.48-3.23-2.48"/><path class="cls-1" d="M39.69,49.14a1.47,1.47,0,0,0-1-.37,2.2,2.2,0,0,0-1.54.93,3.51,3.51,0,0,0-.86,2.38v5.68H33.16V45.35H35.9L36,48.08c1.2-2.11,2-2.91,2.93-2.91a2.22,2.22,0,0,1,1.74.88Z"/><path class="cls-1" d="M46.1,58.11a6.29,6.29,0,0,1-6.25-6.57,6.25,6.25,0,1,1,12.49,0,6.28,6.28,0,0,1-6.24,6.57m0-10.57c-1.61,0-2.94,1.82-2.94,4s1.33,4,2.94,4,2.93-1.81,2.93-4-1.33-4-2.93-4"/><path class="cls-1" d="M63,57.92h-.67c-1.6,0-2.1-.27-2.66-1.36a4.91,4.91,0,0,1-3.47,1.52,3.35,3.35,0,0,1-3.6-3.36,4,4,0,0,1,.21-1.25c.43-1.15,1.17-1.74,3-2.27l3.52-1v-1c0-1.33-.48-1.94-1.52-1.94s-1.73.5-1.73,1.12a1,1,0,0,0,.07.32l-3,.66a2,2,0,0,1-.16-.85C53,46.26,54.87,45,58.24,45c3,0,4.29,1.22,4.29,4v5.17c0,1.12.14,1.31,1,1.39Zm-3.68-5.68-3.18,1a2.66,2.66,0,0,0-.23,1A1.18,1.18,0,0,0,57.2,55.6a2.74,2.74,0,0,0,1.3-.37,5.09,5.09,0,0,0,.83-.56Z"/><path class="cls-1" d="M71.82,57.76V56.08a3.39,3.39,0,0,1-1.26,1.33,4.23,4.23,0,0,1-2.32.7c-2.93,0-5.09-2.62-5.09-6.19,0-3.84,2.64-6.94,5.92-6.94a5.22,5.22,0,0,1,1.09.13,4,4,0,0,1,1.66.75V38.31H75V57.76Zm0-7.42a6.86,6.86,0,0,0-.16-1.6,2.15,2.15,0,0,0-2.09-1.14c-1.76,0-3.06,1.73-3.06,4.08s1,3.81,2.56,3.81a3.48,3.48,0,0,0,2.75-1.86Z"/><path class="cls-1" d="M80.51,58.13a14,14,0,0,1-2.5-.26,9.61,9.61,0,0,1-1.76-.46V38.31h3.17v7.36a6.92,6.92,0,0,1,3.1-.66c3.2,0,5.25,2.32,5.25,6,0,4.41-2.77,7.15-7.26,7.15m.86-10.67a3.89,3.89,0,0,0-2,.56v7.39a3.6,3.6,0,0,0,1.47.35c2,0,3.55-2,3.55-4.62,0-2.24-1.2-3.68-3.07-3.68"/><path class="cls-1" d="M97.88,57.92h-.66c-1.6,0-2.11-.27-2.67-1.36a4.91,4.91,0,0,1-3.47,1.52,3.35,3.35,0,0,1-3.6-3.36,4,4,0,0,1,.21-1.25c.43-1.15,1.18-1.74,3-2.27l3.52-1v-1c0-1.33-.48-1.94-1.52-1.94S91,47.7,91,48.32a.82.82,0,0,0,.08.32l-3,.66a2,2,0,0,1-.16-.85c0-2.19,1.93-3.44,5.29-3.44,3,0,4.29,1.22,4.29,4v5.17c0,1.12.14,1.31,1,1.39ZM94.2,52.24l-3.17,1a2.53,2.53,0,0,0-.24,1,1.18,1.18,0,0,0,1.28,1.28,2.74,2.74,0,0,0,1.3-.37,5.09,5.09,0,0,0,.83-.56Z"/><path class="cls-1" d="M107,57.76v-8c0-1.54-.26-2.1-1-2.1s-1.6.66-3,2.16l-.42.45v7.47H99.3V45.35h3.2v2.06c1.49-1.63,2.72-2.3,4.29-2.3q3.38,0,3.37,3.53v9.12Z"/><path class="cls-1" d="M119.39,57.76V56.08a3.39,3.39,0,0,1-1.26,1.33,4.23,4.23,0,0,1-2.32.7c-2.93,0-5.09-2.62-5.09-6.19,0-3.84,2.64-6.94,5.92-6.94a5.22,5.22,0,0,1,1.09.13,4,4,0,0,1,1.66.75V38.31h3.17V57.76Zm0-7.42a6.86,6.86,0,0,0-.16-1.6,2.14,2.14,0,0,0-2.08-1.14c-1.76,0-3.07,1.73-3.07,4.08s1,3.81,2.56,3.81a3.48,3.48,0,0,0,2.75-1.86Z"/><polygon class="cls-1" points="19.25 67.84 19.25 60.88 19.82 60.88 19.82 67.33 22.93 67.33 22.93 67.84 19.25 67.84"/><path class="cls-1" d="M28.76,67.84l-.71-2.14H25l-.72,2.14h-.62l2.5-7.16h.72l2.49,7.16Zm-2.22-6.58-1.34,3.9h2.67Z"/><polygon class="cls-1" points="33.01 61.39 33.01 67.84 32.45 67.84 32.45 61.39 30.13 61.39 30.13 60.88 35.33 60.88 35.33 61.39 33.01 61.39"/><path class="cls-1" d="M41.16,67.84l-.71-2.14h-3l-.72,2.14h-.62l2.5-7.16h.72l2.49,7.16Zm-2.22-6.58-1.34,3.9h2.67Z"/><polygon class="cls-1" points="49.68 67.84 49.68 61.38 47.11 67.84 46.53 67.84 44.09 61.38 44.09 67.84 43.57 67.84 43.57 60.88 44.53 60.88 46.88 67.22 49.31 60.88 50.25 60.88 50.25 67.84 49.68 67.84"/><path class="cls-1" d="M60.44,61.79a2.82,2.82,0,0,0-1.67-.51,2.76,2.76,0,0,0-2.68,3,2.86,2.86,0,0,0,2.85,3.18,3.81,3.81,0,0,0,1.58-.37l.19.49a4.36,4.36,0,0,1-1.82.41,3.62,3.62,0,1,1,1.84-6.64Z"/><polygon class="cls-1" points="67.64 67.84 67.64 64.51 63.25 64.51 63.25 67.84 62.68 67.84 62.68 60.88 63.25 60.88 63.25 64 67.64 64 67.64 60.88 68.21 60.88 68.21 67.84 67.64 67.84"/><path class="cls-1" d="M75.1,67.84l-.72-2.14h-3l-.71,2.14H70l2.49-7.16h.72l2.49,7.16Zm-2.23-6.58-1.34,3.9H74.2Z"/><path class="cls-1" d="M79.21,65.18a10.62,10.62,0,0,1-1.12-.1v2.76h-.57v-7h1.93c1.34,0,2.2.62,2.2,2a2.22,2.22,0,0,1-2.44,2.3m.12-3.79H78.09v3.2a6,6,0,0,0,1,.08c1.12,0,2-.49,2-1.73s-.62-1.55-1.68-1.55"/><polygon class="cls-1" points="85.43 61.39 85.43 67.84 84.86 67.84 84.86 61.39 82.54 61.39 82.54 60.88 87.75 60.88 87.75 61.39 85.43 61.39"/><polygon class="cls-1" points="89.51 67.84 89.51 60.88 93.13 60.88 93.13 61.38 90.08 61.38 90.08 64.03 92.6 64.03 92.6 64.54 90.08 64.54 90.08 67.33 93.22 67.33 93.22 67.84 89.51 67.84"/><path class="cls-1" d="M99,67.84l-2-3.1H96v3.1h-.57v-7h2c1.18,0,2,.53,2,1.81a1.83,1.83,0,0,1-1.76,2l2,3.19Zm-1.85-6.45H96v2.84h1.27A1.37,1.37,0,0,0,98.8,62.7c0-1.09-.68-1.31-1.64-1.31"/><polygon class="cls-1" points="10.8 23.48 10.8 28.01 16.99 28.01 16.99 30.84 10.8 30.84 10.8 38.23 7.44 38.23 7.44 20.62 18.35 20.62 18.35 23.48 10.8 23.48"/><rect class="cls-1" x="19.4" y="25.82" width="3.18" height="12.41"/><path class="cls-1" d="M28.3,38.6a14.18,14.18,0,0,1-2.51-.26A9.61,9.61,0,0,1,24,37.88V18.78h3.18v7.36a6.84,6.84,0,0,1,3.09-.66c3.2,0,5.26,2.32,5.26,6,0,4.41-2.78,7.15-7.26,7.15m.85-10.67a3.88,3.88,0,0,0-1.94.56v7.39a3.6,3.6,0,0,0,1.46.35c2,0,3.55-2,3.55-4.62,0-2.24-1.2-3.68-3.07-3.68"/><path class="cls-1" d="M45.83,37.7a9.88,9.88,0,0,1-4.08.88c-3.68,0-6-2.43-6-6.22s2.67-6.88,6.22-6.88c3.07,0,5.2,2.32,5.2,5.68v1.36H39a3.91,3.91,0,0,0,.42,2A3.23,3.23,0,0,0,42.15,36a4.79,4.79,0,0,0,1.47-.21A8.63,8.63,0,0,0,46,34.6L47.16,37c-.58.32-1,.53-1.33.67m-4.08-9.82c-1.42,0-2.38,1-2.64,2.64H44c-.08-1.89-.72-2.64-2.21-2.64"/><path class="cls-1" d="M54.74,29.61a1.49,1.49,0,0,0-1-.37,2.2,2.2,0,0,0-1.55.93,3.55,3.55,0,0,0-.85,2.38v5.68H48.2V25.82H51l.14,2.73c1.2-2.11,2-2.91,2.93-2.91a2.22,2.22,0,0,1,1.74.88Z"/><path class="cls-1" d="M21.16,24.33h0A1.86,1.86,0,1,1,23,22.48a1.85,1.85,0,0,1-1.86,1.85"/></svg>