<svg id="Grupo_1331" data-name="Grupo 1331" xmlns="http://www.w3.org/2000/svg" width="123.524" height="34.094" viewBox="0 0 123.524 34.094">
  <g id="Grupo_492" data-name="Grupo 492" transform="translate(62.585 26.36)">
    <path id="Trazado_4110" data-name="Trazado 4110" d="M3398.808,1437.325v4.88c0,.718.354,1.283,1.527,1.283h2.9v1.306h-2.977c-1.981,0-2.756-1.084-2.756-2.578v-4.891Z" transform="translate(-3397.502 -1437.192)" fill="#fff"/>
    <path id="Trazado_4111" data-name="Trazado 4111" d="M3411.582,1437.325v1.305h-3.74c-.786,0-1.128.366-1.128.941,0,.609.387.885,1.139.885h3.674v1.184h-3.707c-.752,0-1.14.3-1.14.908,0,.586.365.94,1.129.94h3.784v1.306h-3.784c-1.77,0-2.49-.874-2.49-2.036a1.713,1.713,0,0,1,1.073-1.716,1.664,1.664,0,0,1-1.051-1.682c0-1.195.742-2.036,2.5-2.036Z" transform="translate(-3398.656 -1437.192)" fill="#fff"/>
    <path id="Trazado_4112" data-name="Trazado 4112" d="M3415.289,1444.77h-1.439l2.623-6.639a1.476,1.476,0,0,1,1.571-.962,1.449,1.449,0,0,1,1.55.962l2.523,6.639h-1.45l-2.268-6.008a.356.356,0,0,0-.365-.255.378.378,0,0,0-.376.255Z" transform="translate(-3399.916 -1437.169)" fill="#fff"/>
    <path id="Trazado_4113" data-name="Trazado 4113" d="M3428.872,1437.325a2.144,2.144,0,0,1,2.4,2.235,2.2,2.2,0,0,1-1.583,2.246l1.738,2.988h-1.45l-1.7-2.888h-1.948a.165.165,0,0,0-.188.188v2.7h-1.306v-2.954c0-.841.355-1.184,1.173-1.184h2.911a.967.967,0,0,0,1.04-1.04.939.939,0,0,0-1.04-.985h-4.095v-1.305Z" transform="translate(-3401.535 -1437.192)" fill="#fff"/>
    <path id="Trazado_4114" data-name="Trazado 4114" d="M3435.412,1444.77h-1.306V1438.8a1.517,1.517,0,0,1,1.716-1.626,1.759,1.759,0,0,1,1.815,1.383l2.179,4.77a.505.505,0,0,0,.476.309.4.4,0,0,0,.443-.42V1437.3h1.316v5.964a1.525,1.525,0,0,1-1.715,1.637,1.771,1.771,0,0,1-1.826-1.383l-2.179-4.769a.461.461,0,0,0-.465-.32.4.4,0,0,0-.454.431Z" transform="translate(-3402.906 -1437.169)" fill="#fff"/>
    <path id="Trazado_4115" data-name="Trazado 4115" d="M3446.839,1437.325v7.469h-1.306v-7.469Z" transform="translate(-3404.594 -1437.192)" fill="#fff"/>
    <path id="Trazado_4116" data-name="Trazado 4116" d="M3450.475,1444.77h-1.306V1438.8a1.517,1.517,0,0,1,1.715-1.626,1.759,1.759,0,0,1,1.815,1.383l2.179,4.77a.506.506,0,0,0,.477.309.4.4,0,0,0,.442-.42V1437.3h1.317v5.964a1.525,1.525,0,0,1-1.716,1.637,1.771,1.771,0,0,1-1.826-1.383l-2.179-4.769a.462.462,0,0,0-.465-.32.4.4,0,0,0-.454.431Z" transform="translate(-3405.13 -1437.169)" fill="#fff"/>
    <path id="Trazado_4117" data-name="Trazado 4117" d="M3466.722,1437.325v1.305h-3.076c-1.438,0-2.069.719-2.069,2.434s.62,2.423,2.069,2.423h1.24a.946.946,0,0,0,1.04-1.051.843.843,0,0,0-.918-.951h-1.659v-1.14h1.792a1.855,1.855,0,0,1,1.981,2.113,2.109,2.109,0,0,1-2.324,2.335h-1.151c-2.179,0-3.375-1.228-3.375-3.729s1.206-3.739,3.375-3.739Z" transform="translate(-3406.769 -1437.192)" fill="#fff"/>
  </g>
  <g id="Grupo_493" data-name="Grupo 493">
    <path id="Trazado_4118" data-name="Trazado 4118" d="M3377.578,1414.261q5.522,0,11.043-.006c.236,0,.319.061.352.3.231,1.641.476,3.279.722,4.917a3.141,3.141,0,0,0,.379,1.069,2.037,2.037,0,0,0,1.864,1.061c.589.014,1.179,0,1.768.009.181,0,.22-.067.248-.231.369-2.3.751-4.592,1.118-6.889.03-.186.092-.234.272-.233q4.243.006,8.486,0c.147,0,.264-.012.227.208-.453,2.686-.8,5.4-1.377,8.055a8.172,8.172,0,0,1-5.942,6.578,9.775,9.775,0,0,1-2.741.35c-2.348,0-4.7,0-7.044.006-.2,0-.26-.045-.257-.252q.019-1.128,0-2.256c0-.2.046-.262.254-.259.989.011,1.977,0,2.965.005a4.559,4.559,0,0,0,1.442-.228,3.219,3.219,0,0,0,2.2-2.6c.053-.243-.09-.217-.242-.217-1.8,0-3.609-.009-5.413.005a9.361,9.361,0,0,1-3.009-.347,3.505,3.505,0,0,1-2.357-2.009,6.953,6.953,0,0,1-.284-1.463c-.162-.937-.305-1.877-.449-2.816-.026-.165-.091-.219-.263-.218-2.729.005-5.458,0-8.187.006a1.191,1.191,0,0,0-1.285,1.318c0,.734.021,1.469.009,2.2,0,.239.081.277.295.277,2.4-.008,4.806,0,7.208-.009.237,0,.329.042.321.305-.022.644-.02,1.288,0,1.931.007.243-.084.274-.3.274-2.42-.007-4.841,0-7.262-.013-.289,0-.333.086-.332.347.011,1.912,0,3.825.012,5.737,0,.224-.052.284-.28.283q-4.176-.013-8.351,0c-.225,0-.284-.058-.283-.284q.012-5.751.006-11.5a4.569,4.569,0,0,1,.117-1.132,2.9,2.9,0,0,1,2.446-2.146,5.883,5.883,0,0,1,1.295-.133Q3372.274,1414.263,3377.578,1414.261Z" transform="translate(-3329.839 -1407.426)" fill="#fff"/>
    <path id="Trazado_4119" data-name="Trazado 4119" d="M3453.662,1429.446c-1.324,0-2.647.005-3.971,0a13.066,13.066,0,0,1-3.441-.424,4.75,4.75,0,0,1-3.8-4.155,13.316,13.316,0,0,1,.344-6.025,6.364,6.364,0,0,1,5.263-4.46,21.319,21.319,0,0,1,3.715-.161q2.91-.014,5.82.008a8.66,8.66,0,0,1,3.32.606,6.434,6.434,0,0,1,3.855,4.671,8.219,8.219,0,0,1,.274,2.285c-.029.886.062,1.777-.046,2.661a4.956,4.956,0,0,1-4.079,4.618,13.6,13.6,0,0,1-3.339.377C3456.273,1429.449,3454.967,1429.446,3453.662,1429.446Zm2.4-7.5c0-.771,0-1.541,0-2.311a2.6,2.6,0,0,0-.065-.592c-.453-2.015-1.832-2.324-3.154-1.874a2.332,2.332,0,0,0-1.533,2.3c-.077,1.619-.06,3.244-.022,4.865a2.184,2.184,0,0,0,1.743,2.265,2.315,2.315,0,0,0,2.946-1.64,3.572,3.572,0,0,0,.084-.836C3456.063,1423.393,3456.066,1422.668,3456.066,1421.943Z" transform="translate(-3341.526 -1407.42)" fill="#fff"/>
    <path id="Trazado_4120" data-name="Trazado 4120" d="M3429.818,1416.8q-2.965,0-5.929,0a1.231,1.231,0,0,0-1.3.9,1.669,1.669,0,0,0-.031.432q0,2.908,0,5.818a2.423,2.423,0,0,0,2.2,2.664,5.869,5.869,0,0,0,1.134.11c1.967,0,3.934,0,5.9-.007.224,0,.289.053.285.281-.015.743-.013,1.487,0,2.23,0,.193-.056.24-.244.24-3.626-.007-7.252,0-10.878-.011a7.9,7.9,0,0,1-3.969-.961,6.553,6.553,0,0,1-3.13-4.345,8.479,8.479,0,0,1-.249-2.126c.011-1.487,0-2.973,0-4.458a3.983,3.983,0,0,1,.157-1.208,2.827,2.827,0,0,1,2.151-1.91,5.571,5.571,0,0,1,1.477-.192h18.358c.393,0,.339-.04.341.353,0,.616-.014,1.233.007,1.849.009.266-.05.35-.336.348C3433.789,1416.8,3431.8,1416.8,3429.818,1416.8Z" transform="translate(-3337.296 -1407.427)" fill="#fff"/>
    <path id="Trazado_4121" data-name="Trazado 4121" d="M3334.105,1422.166a5.661,5.661,0,1,1,5.637,5.667A5.649,5.649,0,0,1,3334.105,1422.166Z" transform="translate(-3325.557 -1407.759)" fill="#fff"/>
    <path id="Trazado_4122" data-name="Trazado 4122" d="M3327.995,1419.284a12.527,12.527,0,0,1,21.045-9.7,12.334,12.334,0,0,1,3.718,11.6,12.409,12.409,0,0,0-3.5-7.852,12.186,12.186,0,0,0-7.722-3.764A12.561,12.561,0,0,0,3327.995,1419.284Z" transform="translate(-3324.653 -1406.243)" fill="#fff"/>
    <path id="Trazado_4123" data-name="Trazado 4123" d="M3347.608,1413.628a10.066,10.066,0,0,1,1.892,1.783,12.26,12.26,0,0,1,2.967,9.108,12.446,12.446,0,0,1-10.406,11.444,12.27,12.27,0,0,1-11.595-4.082,1.936,1.936,0,0,1-.126-.174l.036-.041a13.154,13.154,0,0,0,4.416,1.958,12.6,12.6,0,0,0,15.022-9.227,12.4,12.4,0,0,0-2.133-10.585c-.037-.05-.066-.106-.1-.159Z" transform="translate(-3325.001 -1407.333)" fill="#fff"/>
    <path id="Trazado_4124" data-name="Trazado 4124" d="M3329.534,1411.156a15.908,15.908,0,0,0-1.56,2.148,11.6,11.6,0,0,0,15.591,15.959c.063-.034.128-.066.194-.1.005,0,.015.005.041.014-.021.092-.1.138-.16.193a11.337,11.337,0,0,1-8.884,3.109,11.588,11.588,0,0,1-5.389-21.273c.045-.028.1-.048.145-.072Z" transform="translate(-3324.077 -1406.965)" fill="#fff"/>
    <path id="Trazado_4125" data-name="Trazado 4125" d="M3330.453,1411.132l.056-.018c.015.033-.013.033-.033.038Z" transform="translate(-3325.018 -1406.962)" fill="#fff"/>
    <path id="Trazado_4126" data-name="Trazado 4126" d="M3350.563,1413.647c-.025-.009-.051-.027-.027-.052s.042,0,.053.026Z" transform="translate(-3327.982 -1407.327)" fill="#fff"/>
    <path id="Trazado_4127" data-name="Trazado 4127" d="M3347.3,1432.243c-.006.005-.012.014-.018.014s-.011-.009-.017-.015.012-.014.018-.014S3347.3,1432.237,3347.3,1432.243Z" transform="translate(-3327.501 -1410.079)" fill="#fff"/>
    <path id="Trazado_4128" data-name="Trazado 4128" d="M3330.281,1434.758l-.038-.022.031-.012,0,.04Z" transform="translate(-3324.987 -1410.448)" fill="#fff"/>
    <path id="Trazado_4129" data-name="Trazado 4129" d="M3330.282,1434.769c.035-.029.06,0,.085.017l-.036.041a.053.053,0,0,1-.045-.064Z" transform="translate(-3324.993 -1410.453)" fill="#fff"/>
  </g>
</svg>
