<svg xmlns="http://www.w3.org/2000/svg" width="41.544" height="41.544" viewBox="0 0 41.544 41.544">
  <g id="Grupo_1337" data-name="Grupo 1337" transform="translate(-493.5 -819.5)">
    <g id="Grupo_191" data-name="Grupo 191" transform="translate(-8.88 -601.5)">
      <circle id="Elipse_93" data-name="Elipse 93" cx="20.272" cy="20.272" r="20.272" transform="translate(502.88 1421.5)" fill="none" stroke="#faffff" stroke-miterlimit="10" stroke-width="1"/>
    </g>
    <path id="Icon_awesome-expand-arrows-alt" data-name="Icon awesome-expand-arrows-alt" d="M20.28,16.374v5.07a1.084,1.084,0,0,1-1.086,1.086h-5.07a1.088,1.088,0,0,1-.77-1.856l1.639-1.639L10.14,14.183,5.286,19.04l1.64,1.634a1.088,1.088,0,0,1-.77,1.856H1.086A1.084,1.084,0,0,1,0,21.444v-5.07a1.088,1.088,0,0,1,1.856-.77l1.638,1.639L8.35,12.39,3.494,7.533,1.856,9.176A1.088,1.088,0,0,1,0,8.406V3.336A1.084,1.084,0,0,1,1.086,2.25h5.07a1.088,1.088,0,0,1,.77,1.856L5.287,5.745,10.14,10.6,14.994,5.74l-1.64-1.634a1.088,1.088,0,0,1,.77-1.856h5.07A1.084,1.084,0,0,1,20.28,3.336v5.07a1.088,1.088,0,0,1-1.856.77L16.786,7.537,11.93,12.39l4.856,4.857,1.638-1.639A1.086,1.086,0,0,1,20.28,16.374Z" transform="translate(504.132 827.956)" fill="#faffff"/>
  </g>
</svg>
