<svg xmlns="http://www.w3.org/2000/svg" xmlns:xlink="http://www.w3.org/1999/xlink" width="155.598" height="156.598" viewBox="0 0 155.598 156.598">
  <defs>
    <clipPath id="clip-path">
      <rect id="Rectángulo_61" data-name="Rectángulo 61" width="29.658" height="28.907" transform="translate(2461.435 681)" fill="none"/>
    </clipPath>
    <clipPath id="clip-path-2">
      <rect id="Rectángulo_62" data-name="Rectángulo 62" width="29.658" height="28.907" transform="translate(2461.436 681.001)" fill="none"/>
    </clipPath>
  </defs>
  <g id="Grupo_220" data-name="Grupo 220" transform="translate(-254 -653.402)">
    <line id="Línea_44" data-name="Línea 44" x1="98.067" transform="translate(256.433 676.5)" fill="none" stroke="#1593d2" stroke-width="1"/>
    <line id="Línea_45" data-name="Línea 45" y2="102" transform="translate(391.5 704.5)" fill="none" stroke="#1593d2" stroke-width="1"/>
    <g id="Grupo_145" data-name="Grupo 145" transform="translate(0 -8)">
      <circle id="Elipse_15" data-name="Elipse 15" cx="26.5" cy="26.5" r="26.5" transform="translate(348 670)" fill="#7b7c7c"/>
      <circle id="Elipse_16" data-name="Elipse 16" cx="26.5" cy="26.5" r="26.5" transform="translate(348 670)" fill="#fff"/>
      <g id="Grupo_78" data-name="Grupo 78" transform="translate(-2102)">
        <g id="Grupo_77" data-name="Grupo 77" clip-path="url(#clip-path)">
          <path id="Trazado_606" data-name="Trazado 606" d="M2465.865,695.239a2.48,2.48,0,1,0-1.493.9,18.775,18.775,0,0,1,1.123,2.883,34.191,34.191,0,0,1,1.25,9.782.868.868,0,1,0,1.737,0c0-6.567-1.235-10.841-2.617-13.57" fill="#de7013"/>
          <path id="Trazado_607" data-name="Trazado 607" d="M2471.635,690.892a2.48,2.48,0,1,0-1.687.418,90.975,90.975,0,0,1,1.436,17.5.869.869,0,1,0,1.737,0,92.458,92.458,0,0,0-1.486-17.917" fill="#1593d2"/>
          <path id="Trazado_608" data-name="Trazado 608" d="M2490.275,691.933a2.48,2.48,0,0,0-3.6,3.387c-1.417,2.794-2.693,7.088-2.693,13.5a.869.869,0,1,0,1.737,0A32.933,32.933,0,0,1,2487,699.2a19.783,19.783,0,0,1,1.177-2.985,2.48,2.48,0,0,0,2.1-4.282" fill="#dfa900"/>
        </g>
      </g>
      <g id="Grupo_144" data-name="Grupo 144">
        <g id="Grupo_80" data-name="Grupo 80" transform="translate(-2102)">
          <g id="Grupo_79" data-name="Grupo 79" clip-path="url(#clip-path-2)">
            <path id="Trazado_609" data-name="Trazado 609" d="M2483.207,686.463a2.481,2.481,0,0,0-2.1,4.425,92.569,92.569,0,0,0-1.476,17.921.869.869,0,1,0,1.737,0,91.042,91.042,0,0,1,1.426-17.5,2.482,2.482,0,0,0,.418-4.846" fill="#855fa4"/>
            <path id="Trazado_610" data-name="Trazado 610" d="M2478.855,683.482a2.481,2.481,0,1,0-3.426,2.294l-.1,23.194a.933.933,0,0,0,.929.937h0a.933.933,0,0,0,.934-.929l.1-23.194a2.481,2.481,0,0,0,1.559-2.3" fill="#5c8093"/>
          </g>
        </g>
      </g>
    </g>
    <circle id="Elipse_44" data-name="Elipse 44" cx="2.5" cy="2.5" r="2.5" transform="translate(389 805)" fill="#1593d2"/>
    <circle id="Elipse_45" data-name="Elipse 45" cx="2.5" cy="2.5" r="2.5" transform="translate(254 674)" fill="#1593d2"/>
  </g>
</svg>
