<svg xmlns="http://www.w3.org/2000/svg" xmlns:xlink="http://www.w3.org/1999/xlink" width="41.543" height="41.543" viewBox="0 0 41.543 41.543">
  <defs>
    <clipPath id="clip-path">
      <rect id="Rectángulo_121" data-name="Rectángulo 121" width="21.183" height="22" fill="none"/>
    </clipPath>
  </defs>
  <g id="Grupo_194" data-name="Grupo 194" transform="translate(-562.38 -1421)">
    <g id="Grupo_173" data-name="Grupo 173" transform="translate(572.38 1431)">
      <g id="Grupo_172" data-name="Grupo 172" clip-path="url(#clip-path)">
        <path id="Trazado_227" data-name="Trazado 227" d="M6.31,6.569,2.242,2.5a.512.512,0,0,0-.722,0L.149,3.873a.512.512,0,0,0,0,.722L4.143,8.59,1.608,10.954H9.162V3.91Z" transform="translate(0 -1.995)" fill="#faffff"/>
        <path id="Trazado_228" data-name="Trazado 228" d="M83.534,6.31,87.6,2.242a.512.512,0,0,0,0-.722L86.231.149a.512.512,0,0,0-.722,0L81.514,4.143,79.15,1.608V9.162h7.044Z" transform="translate(-67.129 0)" fill="#faffff"/>
        <path id="Trazado_229" data-name="Trazado 229" d="M7.913,87.378,3.846,91.446a.512.512,0,0,0,0,.722L5.217,93.54a.512.512,0,0,0,.722,0l3.995-3.995L12.3,92.08V84.526H5.254Z" transform="translate(-3.135 -71.689)" fill="#faffff"/>
        <path id="Trazado_230" data-name="Trazado 230" d="M82,88.911l4.068,4.068a.512.512,0,0,0,.722,0l1.372-1.371a.512.512,0,0,0,0-.722l-3.995-3.995L86.7,84.527H79.149v7.044Z" transform="translate(-67.128 -71.689)" fill="#faffff"/>
      </g>
    </g>
    <circle id="Elipse_94" data-name="Elipse 94" cx="20.272" cy="20.272" r="20.272" transform="translate(562.88 1421.5)" fill="none" stroke="#44a0ba" stroke-miterlimit="10" stroke-width="1"/>
  </g>
</svg>
