<svg xmlns="http://www.w3.org/2000/svg" width="41.544" height="41.544" viewBox="0 0 41.544 41.544">
  <g id="Grupo_1338" data-name="Grupo 1338" transform="translate(-544.5 -819.5)">
    <circle id="Elipse_94" data-name="Elipse 94" cx="20.272" cy="20.272" r="20.272" transform="translate(545 820)" fill="none" stroke="#faffff" stroke-miterlimit="10" stroke-width="1"/>
    <path id="Icon_awesome-compress-arrows-alt" data-name="Icon awesome-compress-arrows-alt" d="M7.981,11.492H3.512a.958.958,0,0,0-.678,1.636l1.313,1.237L.189,18.326a.641.641,0,0,0,0,.9L1.2,20.241a.641.641,0,0,0,.9,0L6.066,16.28,7.307,17.6a.956.956,0,0,0,1.632-.678V12.449A.955.955,0,0,0,7.981,11.492Zm4.468-2.553h4.468A.959.959,0,0,0,17.6,7.3L16.28,6.066,20.241,2.1a.641.641,0,0,0,0-.9L19.228.189a.641.641,0,0,0-.9,0L14.365,4.151,13.124,2.834a.956.956,0,0,0-1.632.678V7.981A.955.955,0,0,0,12.449,8.938Zm3.83,5.426L17.6,13.124a.956.956,0,0,0-.678-1.632H12.449a.955.955,0,0,0-.958.958v4.468a.959.959,0,0,0,1.636.678l1.237-1.313,3.962,3.962a.641.641,0,0,0,.9,0l1.013-1.013a.641.641,0,0,0,0-.9ZM7.3,2.838,6.066,4.151,2.1.189a.641.641,0,0,0-.9,0L.189,1.2a.641.641,0,0,0,0,.9L4.151,6.066,2.834,7.307a.956.956,0,0,0,.678,1.632H7.981a.955.955,0,0,0,.958-.958V3.512A.958.958,0,0,0,7.3,2.838Z" transform="translate(555.057 830.055)" fill="#faffff"/>
  </g>
</svg>
