<svg xmlns="http://www.w3.org/2000/svg" width="98.197" height="98.197" viewBox="0 0 98.197 98.197">
  <g id="Grupo_143" data-name="Grupo 143" transform="translate(-497.402 -1221.402)">
    <circle id="Elipse_28" data-name="Elipse 28" cx="40.5" cy="40.5" r="40.5" transform="translate(506 1230)" fill="#7b7c7c"/>
    <circle id="Elipse_29" data-name="Elipse 29" cx="40.5" cy="40.5" r="40.5" transform="translate(506 1230)" fill="#fff"/>
    <g id="Grupo_112" data-name="Grupo 112" transform="translate(-1051)">
      <g id="Grupo_105" data-name="Grupo 105">
        <g id="Grupo_104" data-name="Grupo 104">
          <g id="Grupo_103" data-name="Grupo 103">
            <path id="Trazado_639" data-name="Trazado 639" d="M1620.6,1283.49l-18.239-31.591a5.611,5.611,0,0,0-9.718,0L1574.4,1283.49a5.611,5.611,0,0,0,4.859,8.416h36.478a5.611,5.611,0,0,0,4.859-8.416Zm-2.421,4.213a2.786,2.786,0,0,1-2.438,1.408h-36.478a2.815,2.815,0,0,1-2.438-4.223l18.239-31.591a2.815,2.815,0,0,1,4.876,0l18.239,31.591A2.786,2.786,0,0,1,1618.177,1287.7Z" fill="#c1272d"/>
          </g>
        </g>
      </g>
      <g id="Grupo_108" data-name="Grupo 108">
        <g id="Grupo_107" data-name="Grupo 107">
          <g id="Grupo_106" data-name="Grupo 106">
            <rect id="Rectángulo_127" data-name="Rectángulo 127" width="2.796" height="13.978" transform="translate(1596.102 1263.045)" fill="#c1272d"/>
          </g>
        </g>
      </g>
      <g id="Grupo_111" data-name="Grupo 111">
        <g id="Grupo_110" data-name="Grupo 110">
          <g id="Grupo_109" data-name="Grupo 109">
            <path id="Trazado_640" data-name="Trazado 640" d="M1597.5,1279.819a1.864,1.864,0,1,0,1.864,1.864A1.866,1.866,0,0,0,1597.5,1279.819Z" fill="#c1272d"/>
          </g>
        </g>
      </g>
    </g>
  </g>
</svg>
